Motion_pl08
version=1
nRows=16
nColumns=43
inDegrees=yes
endheader
time	pelvis_tilt	pelvis_list	pelvis_rotation	pelvis_tx	pelvis_ty	pelvis_tz	hip_flexion_r	hip_adduction_r	hip_rotation_r	knee_angle_r	ankle_angle_r	subtalar_angle_r	mtp_angle_r	hip_flexion_l	hip_adduction_l	hip_rotation_l	knee_angle_l	ankle_angle_l	subtalar_angle_l	mtp_angle_l	lumbar_extension	lumbar_bending	lumbar_rotation	neck_flexion	neck_lateral_bending	neck_rotation	arm_flex_r	arm_add_r	arm_rot_r	elbow_flex_r	pro_sup_r	wrist_flex_r	wrist_dev_r	hand_finger_flex_r	arm_flex_l	arm_add_l	arm_rot_l	elbow_flex_l	pro_sup_l	wrist_flex_l	wrist_dev_l	hand_finger_flex_l
      0.91000000	     -2.04789583	    -17.74438152	     88.94572878	      0.01295377	      1.70019236	      1.75301389	     92.51967444	    -12.65582952	      7.46572395	   -121.00510356	     28.52678888	     15.28897782	     24.21913556	     88.67575563	    -10.68948792	      5.35612879	   -121.77169300	     30.77894765	     18.52245419	     19.12033290	    -38.95591037	     -3.33175592	      1.92299162	     14.89649389	      3.90284721	     -3.88826141	     -7.40767783	    -34.80615054	    -69.48313940	    132.73368594	    128.10945001	    -38.00467462	     -2.10140743	     -5.43470876	     -7.94293669	    -35.86705853	    -72.40669372	    128.47867813	    130.59500642	    -53.95859538	      5.87252640	     41.32393520
      0.91250000	     -2.05191909	    -17.86753631	     88.89514106	      0.01305316	      1.69960869	      1.75278922	     92.72249827	    -12.67238511	      7.53865932	   -121.10223938	     28.55979809	     15.71921198	     24.56238558	     88.83511297	    -10.77338428	      5.42012467	   -121.85832013	     30.81546175	     18.87613873	     19.50884409	    -38.63885508	     -3.37001835	      1.74446825	     14.32931996	      3.96487590	     -3.64046463	     -7.33172800	    -34.56719042	    -68.46870845	    132.16514572	    127.29735744	    -37.03921020	     -3.42454679	     -4.70806984	     -8.55885500	    -35.64363162	    -72.26448873	    128.26624789	    129.70708164	    -53.48708841	      5.29320436	     40.91278645
      0.91500000	     -2.06068303	    -17.82173109	     88.89254046	      0.01310673	      1.69955311	      1.75243288	     92.69359607	    -12.74741238	      7.51484223	   -121.17172801	     28.53109150	     15.72053843	     24.57365116	     88.78988987	    -10.81510900	      5.40422296	   -121.92213199	     30.79542952	     18.87197495	     19.52195502	    -38.67276052	     -3.38417834	      1.77856404	     14.60146522	      3.97664231	     -3.67921923	     -7.71517324	    -34.35356761	    -67.82069136	    131.91735965	    127.27294906	    -36.82966316	     -3.44796092	     -4.63988265	     -8.83134963	    -35.44295898	    -71.75934058	    128.09890237	    129.66977099	    -53.34341892	      5.28982951	     40.94893699
      0.91750000	     -2.06911549	    -17.77445531	     88.88545566	      0.01315719	      1.69950466	      1.75213221	     92.67084245	    -12.80724405	      7.50073404	   -121.23080254	     28.50199967	     15.73804043	     24.58755436	     88.74428112	    -10.84971335	      5.40579902	   -121.97074691	     30.77815165	     18.87825297	     19.53661817	    -38.69749298	     -3.40049859	      1.80899451	     14.81893757	      3.98926452	     -3.72402313	     -8.07825660	    -34.17337883	    -67.13423748	    131.61262909	    127.23294387	    -36.57098851	     -3.47291276	     -4.56398137	     -9.09110528	    -35.26784096	    -71.23551160	    127.89124865	    129.60518667	    -53.17123547	      5.30452879	     40.99320952
      0.92000000	     -2.07314511	    -17.71803239	     88.85365420	      0.01327917	      1.69951494	      1.75185993	     92.63201265	    -12.82556600	      7.51041171	   -121.27254294	     28.42585433	     15.88841227	     24.69631626	     88.68314234	    -10.90965772	      5.43542884	   -122.00330463	     30.75932121	     18.96167838	     19.64674711	    -38.62413610	     -3.43444470	      1.77935733	     14.38991804	      4.05985774	     -3.83173412	     -8.06599138	    -33.95037381	    -66.11624808	    131.16764323	    126.91316719	    -35.92553142	     -3.63659310	     -4.47845569	     -9.24388327	    -35.05445624	    -70.66962188	    127.65899962	    129.12594181	    -52.70649247	      5.37274816	     41.04452815
      0.92250000	     -2.08219001	    -17.67582995	     88.84958092	      0.01333081	      1.69939695	      1.75152505	     92.61275757	    -12.88092957	      7.50136322	   -121.34366017	     28.42254382	     15.89656235	     24.71148974	     88.64912047	    -10.93925999	      5.42820277	   -122.06703738	     30.75181072	     18.97042540	     19.66121199	    -38.65038052	     -3.45106216	      1.81034130	     14.66755609	      4.05154486	     -3.82523494	     -8.50369383	    -33.78009445	    -65.48233114	    130.86373337	    126.89463963	    -35.66054842	     -3.66383078	     -4.41844091	     -9.58468055	    -34.88718561	    -70.19255246	    127.42200469	    129.07221895	    -52.52893233	      5.38556328	     41.09628736
      0.92500000	     -2.09088638	    -17.64016869	     88.84362602	      0.01338107	      1.69929999	      1.75122047	     92.59382317	    -12.91931033	      7.50237591	   -121.39943050	     28.41971836	     15.91278860	     24.72854823	     88.61805823	    -10.96734635	      5.43227497	   -122.11803680	     30.74645848	     18.98413174	     19.67708613	    -38.66237681	     -3.46695134	      1.83294558	     14.88958610	      4.05113809	     -3.83748869	     -8.88380095	    -33.60923743	    -64.80920666	    130.52047326	    126.86553271	    -35.35258155	     -3.68007007	     -4.35538717	     -9.87979419	    -34.71336388	    -69.69977289	    127.15875652	    128.99377133	    -52.32823051	      5.40919087	     41.15648358
      0.92750000	     -2.15459117	    -17.77163456	     88.77368256	      0.01350538	      1.69875221	      1.75106547	     92.81325703	    -12.88407999	      7.60615525	   -121.47537686	     28.42922416	     16.09626582	     25.19819234	     88.78828482	    -11.03992759	      5.41363233	   -122.19012676	     30.75363932	     19.16911937	     20.14278286	    -38.38399398	     -3.54831543	      1.45740704	     14.60684624	      4.19429956	     -3.41361028	     -8.52216420	    -33.37084167	    -63.59149863	    130.06702515	    126.43205956	    -33.29140931	     -4.14638124	     -5.19889716	    -10.65881717	    -34.33266501	    -70.07104111	    127.04214852	    127.65106671	    -51.16244685	      4.92558946	     41.14416063
      0.93000000	     -2.16103540	    -17.72036025	     88.78041406	      0.01359071	      1.69871427	      1.75074414	     92.75890918	    -12.91802399	      7.60375043	   -121.51822281	     28.42160402	     16.08891226	     25.20933905	     88.73279503	    -11.05796643	      5.41941933	   -122.21907793	     30.73855526	     19.15971029	     20.15375615	    -38.42121176	     -3.56952003	      1.48558528	     14.82786457	      4.18924907	     -3.45751033	     -8.94666614	    -33.18500812	    -62.94326320	    129.69843100	    126.43713276	    -33.04648868	     -4.12533278	     -5.17688645	    -10.94734917	    -34.17016344	    -69.55714284	    126.77206135	    127.63031827	    -51.02162043	      4.92752310	     41.17555080
      0.93250000	     -2.16900132	    -17.67442572	     88.77664544	      0.01362651	      1.69865410	      1.75042467	     92.71021131	    -12.93957464	      7.61150225	   -121.56970248	     28.42648900	     16.08482169	     25.22267434	     88.68527987	    -11.07944862	      5.42251343	   -122.26394811	     30.73165553	     19.15853206	     20.16713601	    -38.43497769	     -3.58379544	      1.50845330	     15.00926958	      4.19566692	     -3.51345160	     -9.30593554	    -33.03876699	    -62.25964697	    129.28650008	    126.44455065	    -32.74558382	     -4.10348612	     -5.14591057	    -11.19120836	    -34.00371991	    -69.02264574	    126.45905491	    127.59707787	    -50.85811418	      4.93105393	     41.20594580
      0.93500000	     -2.18215733	    -17.62219275	     88.72762986	      0.01373972	      1.69867129	      1.75014582	     92.63128897	    -12.89725832	      7.63128057	   -121.58197887	     28.49656666	     16.11018683	     25.30736534	     88.61100425	    -11.14249288	      5.42320171	   -122.28447752	     30.75592411	     19.19515994	     20.25716637	    -38.33540503	     -3.62737998	      1.49075837	     14.47567616	      4.22658872	     -3.65885990	     -9.28082878	    -32.87198641	    -61.30184794	    128.70203704	    126.53802486	    -31.90382550	     -4.09741979	     -5.29663557	    -11.27350897	    -33.77766561	    -68.42708637	    126.01329315	    127.46396920	    -50.55648706	      4.76929010	     41.10947293
      0.93750000	     -2.19102513	    -17.58718127	     88.72995276	      0.01379250	      1.69853255	      1.74977192	     92.60115688	    -12.92524270	      7.64198371	   -121.65184519	     28.49600936	     16.11150121	     25.31898119	     88.57676106	    -11.16651169	      5.42589296	   -122.34686249	     30.75155688	     19.20391939	     20.26992507	    -38.34505836	     -3.64121325	      1.51278608	     14.74610953	      4.21569691	     -3.65225799	     -9.70146947	    -32.72251697	    -60.70464582	    128.28971230	    126.56613262	    -31.59957016	     -4.08740901	     -5.26109101	    -11.59251511	    -33.60762371	    -67.96045288	    125.70660813	    127.44780072	    -50.39411049	      4.76606999	     41.12956904
      0.94000000	     -2.19977725	    -17.55779680	     88.72329468	      0.01382683	      1.69841162	      1.74944817	     92.57433740	    -12.94343699	      7.65646415	   -121.70675551	     28.50418863	     16.12101343	     25.33250371	     88.54715227	    -11.19058694	      5.43009232	   -122.39778737	     30.75358094	     19.22249142	     20.28465008	    -38.33784358	     -3.65593847	      1.53191161	     14.96471928	      4.21809027	     -3.66801183	    -10.05633491	    -32.60195421	    -60.06591924	    127.81308667	    126.59918972	    -31.23663319	     -4.08255172	     -5.21274789	    -11.85939802	    -33.43670739	    -67.47475989	    125.35862784	    127.42887709	    -50.21441670	      4.76250590	     41.13695785
      0.94250000	     -2.28293657	    -17.57847820	     88.70596326	      0.01393927	      1.69813767	      1.74921562	     92.65490994	    -12.96741646	      7.76213006	   -121.77775868	     28.46618131	     16.12889060	     26.08432192	     88.57165340	    -11.21826768	      5.35486880	   -122.43871399	     30.66790942	     19.24406500	     21.18644593	    -38.15964681	     -3.74075453	      1.01001548	     14.51268236	      4.43548436	     -3.33548376	     -9.58321242	    -32.40449935	    -58.96947924	    127.25615269	    127.54432038	    -27.40135472	     -3.94619086	     -9.29672976	    -12.76339415	    -32.96402942	    -68.04224455	    125.10147747	    126.36430371	    -48.38130438	      3.74757734	     38.36196266
      0.94500000	     -2.29247833	    -17.54797062	     88.68969793	      0.01396789	      1.69804310	      1.74884208	     92.62230482	    -12.98483252	      7.77840423	   -121.82678672	     28.47800913	     16.15075699	     26.09022022	     88.52522573	    -11.23647537	      5.37203111	   -122.48844698	     30.67857209	     19.27213531	     21.19351278	    -38.16310332	     -3.75256017	      1.06538805	     14.76437233	      4.40495236	     -3.32131743	     -9.96343743	    -32.22953178	    -58.39460652	    126.79718530	    127.53140813	    -27.14429683	     -3.94542137	     -9.24407240	    -13.03269845	    -32.78660327	    -67.51831872	    124.73841488	    126.37498859	    -48.22046257	      3.78947881	     38.40499815
      0.94750000	     -2.29948684	    -17.51577362	     88.67391785	      0.01402154	      1.69795985	      1.74850728	     92.59508657	    -13.00646222	      7.78279275	   -121.87732461	     28.49331455	     16.18740700	     26.09829788	     88.48570875	    -11.28365167	      5.37891833	   -122.54119820	     30.69180411	     19.31341493	     21.20240356	    -38.15187593	     -3.76575125	      1.10703589	     14.96363591	      4.38854496	     -3.33653417	    -10.31581051	    -32.11320799	    -57.77372369	    126.25411509	    127.52315603	    -26.82293946	     -3.95747436	     -9.17378884	    -13.25052424	    -32.64055176	    -66.99830879	    124.31980376	    126.38912238	    -48.03066088	      3.83799630	     38.43813028
